<svg width="75" height="70" viewBox="0 0 173 69" fill="none" xmlns="http://www.w3.org/2000/svg">
<rect x="1.35" y="1.35" width="170.3" height="66.3" rx="33.15" fill="#4F4F4F" stroke="url(#paint0_linear_1_7114)" stroke-width="1.3"/>
<mask id="mask0_1_7114" style="mask-type:alpha" maskUnits="userSpaceOnUse" x="2" y="2" width="169" height="65">
<rect x="2" y="2" width="169" height="65" rx="32.5" fill="black"/>
</mask>
<g mask="url(#mask0_1_7114)">
<g filter="url(#filter0_i_1_7114)">
<rect x="2" y="2" width="169" height="65" rx="32.5" fill="#1F2533"/>
</g>
<path d="M16.95 21.5L17.4767 22.9233L18.9 23.45L17.4767 23.9767L16.95 25.4L16.4233 23.9767L15 23.45L16.4233 22.9233L16.95 21.5Z" fill="#DEE5F3"/>
<path d="M40.3499 31.8999L40.8766 33.3232L42.2999 33.8499L40.8766 34.3766L40.3499 35.7999L39.8232 34.3766L38.3999 33.8499L39.8232 33.3232L40.3499 31.8999Z" fill="#DEE5F3"/>
<path d="M22.1502 55.3L22.6769 56.7234L24.1002 57.25L22.6769 57.7767L22.1502 59.2L21.6235 57.7767L20.2002 57.25L21.6235 56.7234L22.1502 55.3Z" fill="#DEE5F3"/>
<path d="M28.65 35.8L28.8256 36.2745L29.3 36.45L28.8256 36.6256L28.65 37.1L28.4744 36.6256L28 36.45L28.4744 36.2745L28.65 35.8Z" fill="#DEE5F3"/>
<path d="M18.2501 44.8999L18.4257 45.3743L18.9001 45.5499L18.4257 45.7255L18.2501 46.1999L18.0745 45.7255L17.6001 45.5499L18.0745 45.3743L18.2501 44.8999Z" fill="#DEE5F3"/>
<path d="M32.8749 57.8999L33.1382 58.6116L33.8499 58.8749L33.1382 59.1382L32.8749 59.8499L32.6116 59.1382L31.8999 58.8749L32.6116 58.6116L32.8749 57.8999Z" fill="#DEE5F3"/>
<g filter="url(#filter1_f_1_7114)">
<path d="M15.975 31.8999L16.2383 32.6116L16.95 32.8749L16.2383 33.1382L15.975 33.8499L15.7117 33.1382L15 32.8749L15.7117 32.6116L15.975 31.8999Z" fill="#DEE5F3"/>
</g>
<path d="M10.4503 51.3999L10.6259 51.8743L11.1003 52.0499L10.6259 52.2255L10.4503 52.6999L10.2747 52.2255L9.80029 52.0499L10.2747 51.8743L10.4503 51.3999Z" fill="#DEE5F3"/>
<path d="M42.9503 48.8L43.1259 49.2745L43.6003 49.45L43.1259 49.6256L42.9503 50.1L42.7747 49.6256L42.3003 49.45L42.7747 49.2745L42.9503 48.8Z" fill="#DEE5F3"/>
<path d="M31.2501 15L31.4257 15.4744L31.9001 15.65L31.4257 15.8256L31.2501 16.3L31.0745 15.8256L30.6001 15.65L31.0745 15.4744L31.2501 15Z" fill="#DEE5F3"/>
<path d="M5.2501 35.8L5.42566 36.2745L5.9001 36.45L5.42566 36.6256L5.2501 37.1L5.07454 36.6256L4.6001 36.45L5.07454 36.2745L5.2501 35.8Z" fill="#DEE5F3"/>
<path d="M50.7498 8.5L51.2765 9.92332L52.6998 10.45L51.2765 10.9767L50.7498 12.4L50.2231 10.9767L48.7998 10.45L50.2231 9.92332L50.7498 8.5Z" fill="#DEE5F3"/>
<path d="M80.6497 21.5L81.1764 22.9233L82.5997 23.45L81.1764 23.9767L80.6497 25.4L80.123 23.9767L78.6997 23.45L80.123 22.9233L80.6497 21.5Z" fill="#DEE5F3"/>
<path d="M62.45 51.3999L62.9767 52.8232L64.4 53.3499L62.9767 53.8766L62.45 55.2999L61.9233 53.8766L60.5 53.3499L61.9233 52.8232L62.45 51.3999Z" fill="#DEE5F3"/>
<path d="M68.9498 25.3999L69.1254 25.8743L69.5998 26.0499L69.1254 26.2255L68.9498 26.6999L68.7742 26.2255L68.2998 26.0499L68.7742 25.8743L68.9498 25.3999Z" fill="#DEE5F3"/>
<path d="M63.7501 39.7L63.9257 40.1744L64.4001 40.35L63.9257 40.5255L63.7501 41L63.5745 40.5255L63.1001 40.35L63.5745 40.1744L63.7501 39.7Z" fill="#DEE5F3"/>
<path d="M70.5751 33.2L70.8384 33.9116L71.5501 34.175L70.8384 34.4383L70.5751 35.15L70.3118 34.4383L69.6001 34.175L70.3118 33.9116L70.5751 33.2Z" fill="#DEE5F3"/>
<g filter="url(#filter2_f_1_7114)">
<path d="M56.2748 21.5L56.5381 22.2117L57.2498 22.475L56.5381 22.7383L56.2748 23.45L56.0115 22.7383L55.2998 22.475L56.0115 22.2117L56.2748 21.5Z" fill="#DEE5F3"/>
</g>
<g filter="url(#filter3_f_1_7114)">
<path d="M50.7501 39.7L50.9257 40.1744L51.4001 40.35L50.9257 40.5255L50.7501 41L50.5745 40.5255L50.1001 40.35L50.5745 40.1744L50.7501 39.7Z" fill="#DEE5F3"/>
</g>
<path d="M83.2501 38.3999L83.4257 38.8743L83.9001 39.0499L83.4257 39.2255L83.2501 39.6999L83.0745 39.2255L82.6001 39.0499L83.0745 38.8743L83.2501 38.3999Z" fill="#DEE5F3"/>
<path d="M76.7501 12.3999L76.9257 12.8743L77.4001 13.0499L76.9257 13.2255L76.7501 13.6999L76.5745 13.2255L76.1001 13.0499L76.5745 12.8743L76.7501 12.3999Z" fill="#DEE5F3"/>
<path d="M45.5499 25.3999L45.7255 25.8743L46.1999 26.0499L45.7255 26.2255L45.5499 26.6999L45.3743 26.2255L44.8999 26.0499L45.3743 25.8743L45.5499 25.3999Z" fill="#DEE5F3"/>
</g>
<defs>
<filter id="filter0_i_1_7114" x="2" y="2" width="169" height="72.8" filterUnits="userSpaceOnUse" color-interpolation-filters="sRGB">
<feFlood flood-opacity="0" result="BackgroundImageFix"/>
<feBlend mode="normal" in="SourceGraphic" in2="BackgroundImageFix" result="shape"/>
<feColorMatrix in="SourceAlpha" type="matrix" values="0 0 0 0 0 0 0 0 0 0 0 0 0 0 0 0 0 0 127 0" result="hardAlpha"/>
<feOffset dy="7.8"/>
<feGaussianBlur stdDeviation="5.85"/>
<feComposite in2="hardAlpha" operator="arithmetic" k2="-1" k3="1"/>
<feColorMatrix type="matrix" values="0 0 0 0 0.0903125 0 0 0 0 0.105719 0 0 0 0 0.141667 0 0 0 1 0"/>
<feBlend mode="normal" in2="shape" result="effect1_innerShadow_1_7114"/>
</filter>
<filter id="filter1_f_1_7114" x="14.74" y="31.6399" width="2.4702" height="2.46995" filterUnits="userSpaceOnUse" color-interpolation-filters="sRGB">
<feFlood flood-opacity="0" result="BackgroundImageFix"/>
<feBlend mode="normal" in="SourceGraphic" in2="BackgroundImageFix" result="shape"/>
<feGaussianBlur stdDeviation="0.13" result="effect1_foregroundBlur_1_7114"/>
</filter>
<filter id="filter2_f_1_7114" x="55.0398" y="21.24" width="2.4702" height="2.46995" filterUnits="userSpaceOnUse" color-interpolation-filters="sRGB">
<feFlood flood-opacity="0" result="BackgroundImageFix"/>
<feBlend mode="normal" in="SourceGraphic" in2="BackgroundImageFix" result="shape"/>
<feGaussianBlur stdDeviation="0.13" result="effect1_foregroundBlur_1_7114"/>
</filter>
<filter id="filter3_f_1_7114" x="49.8401" y="39.44" width="1.8198" height="1.82005" filterUnits="userSpaceOnUse" color-interpolation-filters="sRGB">
<feFlood flood-opacity="0" result="BackgroundImageFix"/>
<feBlend mode="normal" in="SourceGraphic" in2="BackgroundImageFix" result="shape"/>
<feGaussianBlur stdDeviation="0.13" result="effect1_foregroundBlur_1_7114"/>
</filter>
<linearGradient id="paint0_linear_1_7114" x1="88.45" y1="-13.6" x2="89.1" y2="87.15" gradientUnits="userSpaceOnUse">
<stop offset="0.125"/>
<stop offset="1" stop-color="white" stop-opacity="0"/>
</linearGradient>
</defs>
</svg>
