<svg width="75" height="70" viewBox="0 0 173 69" fill="none" xmlns="http://www.w3.org/2000/svg">
<rect x="1.35" y="1.35" width="170.3" height="66.3" rx="33.15" fill="#A2D1FD" stroke="url(#paint0_linear_1_7052)" stroke-width="1.3"/>
<mask id="mask0_1_7052" style="mask-type:alpha" maskUnits="userSpaceOnUse" x="2" y="2" width="169" height="65">
<rect x="2" y="2" width="169" height="65" rx="32.5" fill="#E0FDFF"/>
</mask>
<g mask="url(#mask0_1_7052)">
<g filter="url(#filter0_i_1_7052)">
<rect x="2" y="2" width="169" height="65" rx="32.5" fill="#A2D1FD"/>
</g>
<g opacity="0.95">
<circle cx="94.2502" cy="60.8421" r="13.65" transform="rotate(-3.84411 94.2502 60.8421)" fill="white"/>
<circle cx="113.183" cy="51.7523" r="13.65" transform="rotate(-3.84411 113.183 51.7523)" fill="white"/>
<circle cx="114.229" cy="67.3172" r="13.65" transform="rotate(-3.84411 114.229 67.3172)" fill="white"/>
<circle cx="130.307" cy="54.5106" r="13.65" transform="rotate(-3.84411 130.307 54.5106)" fill="white"/>
<circle cx="137.664" cy="67.0455" r="13.65" transform="rotate(-3.84411 137.664 67.0455)" fill="white"/>
<circle cx="151.322" cy="57.0074" r="13.65" transform="rotate(-3.84411 151.322 57.0074)" fill="white"/>
</g>
<g opacity="0.95">
<circle cx="26.1575" cy="73.0982" r="13.65" transform="rotate(-3.84411 26.1575 73.0982)" fill="white"/>
<circle cx="45.0906" cy="64.0084" r="13.65" transform="rotate(-3.84411 45.0906 64.0084)" fill="white"/>
<circle cx="46.1365" cy="79.5733" r="13.65" transform="rotate(-3.84411 46.1365 79.5733)" fill="white"/>
<circle cx="62.2141" cy="66.7667" r="13.65" transform="rotate(-3.84411 62.2141 66.7667)" fill="white"/>
<circle cx="69.571" cy="79.3016" r="13.65" transform="rotate(-3.84411 69.571 79.3016)" fill="white"/>
<circle cx="83.2288" cy="69.2635" r="13.65" transform="rotate(-3.84411 83.2288 69.2635)" fill="white"/>
</g>
<g opacity="0.6">
<circle cx="106.091" cy="43.1959" r="13.65" transform="rotate(-3.84411 106.091 43.1959)" fill="white"/>
<circle cx="125.024" cy="34.106" r="13.65" transform="rotate(-3.84411 125.024 34.106)" fill="white"/>
<circle cx="126.07" cy="49.671" r="13.65" transform="rotate(-3.84411 126.07 49.671)" fill="white"/>
<circle cx="142.148" cy="36.8643" r="13.65" transform="rotate(-3.84411 142.148 36.8643)" fill="white"/>
<circle cx="149.505" cy="49.3992" r="13.65" transform="rotate(-3.84411 149.505 49.3992)" fill="white"/>
<circle cx="163.162" cy="39.3611" r="13.65" transform="rotate(-3.84411 163.162 39.3611)" fill="white"/>
</g>
<g opacity="0.6">
<circle cx="48.4167" cy="64.9257" r="13.65" transform="rotate(-4.59401 48.4167 64.9257)" fill="white"/>
<circle cx="67.2297" cy="55.589" r="13.65" transform="rotate(-4.59401 67.2297 55.589)" fill="white"/>
<circle cx="68.4792" cy="71.1388" r="13.65" transform="rotate(-4.59401 68.4792 71.1388)" fill="white"/>
<circle cx="84.3874" cy="58.1227" r="13.65" transform="rotate(-4.59401 84.3874 58.1227)" fill="white"/>
<circle cx="91.9079" cy="70.5605" r="13.65" transform="rotate(-4.59401 91.9079 70.5605)" fill="white"/>
<circle cx="105.433" cy="60.3444" r="13.65" transform="rotate(-4.59401 105.433 60.3444)" fill="white"/>
</g>
</g>
<defs>
<filter id="filter0_i_1_7052" x="2" y="2" width="169" height="72.8" filterUnits="userSpaceOnUse" color-interpolation-filters="sRGB">
<feFlood flood-opacity="0" result="BackgroundImageFix"/>
<feBlend mode="normal" in="SourceGraphic" in2="BackgroundImageFix" result="shape"/>
<feColorMatrix in="SourceAlpha" type="matrix" values="0 0 0 0 0 0 0 0 0 0 0 0 0 0 0 0 0 0 127 0" result="hardAlpha"/>
<feOffset dy="7.8"/>
<feGaussianBlur stdDeviation="5.85"/>
<feComposite in2="hardAlpha" operator="arithmetic" k2="-1" k3="1"/>
<feColorMatrix type="matrix" values="0 0 0 0 0.445833 0 0 0 0 0.734 0 0 0 0 1 0 0 0 1 0"/>
<feBlend mode="normal" in2="shape" result="effect1_innerShadow_1_7052"/>
</filter>
<linearGradient id="paint0_linear_1_7052" x1="88.45" y1="-13.6" x2="89.1" y2="87.15" gradientUnits="userSpaceOnUse">
<stop offset="0.125" stop-color="#6CB8FF"/>
<stop offset="1" stop-color="white" stop-opacity="0"/>
</linearGradient>
</defs>
</svg>
